<mxfile host="app.diagrams.net" modified="2023-08-31T15:49:01.078Z" agent="Mozilla/5.0 (Macintosh; Intel Mac OS X 10_15_7) AppleWebKit/605.1.15 (KHTML, like Gecko) Version/17.0 Safari/605.1.15" etag="t88JWr0kCssAqYzQWVhN" version="21.7.0" type="github">
  <diagram id="prtHgNgQTEPvFCAcTncT" name="Page-1">
    <mxGraphModel dx="884" dy="893" grid="1" gridSize="10" guides="1" tooltips="1" connect="1" arrows="1" fold="1" page="1" pageScale="1" pageWidth="1169" pageHeight="1654" math="0" shadow="0">
      <root>
        <mxCell id="0" />
        <mxCell id="1" parent="0" />
        <mxCell id="PwU85s7J777pROoVStlR-39" value="Pool" style="swimlane;childLayout=stackLayout;resizeParent=1;resizeParentMax=0;startSize=20;html=1;" vertex="1" parent="1">
          <mxGeometry x="139.38" y="10" width="810" height="610" as="geometry" />
        </mxCell>
        <mxCell id="PwU85s7J777pROoVStlR-40" value="用户" style="swimlane;startSize=20;html=1;" vertex="1" parent="PwU85s7J777pROoVStlR-39">
          <mxGeometry y="20" width="180" height="590" as="geometry" />
        </mxCell>
        <mxCell id="PwU85s7J777pROoVStlR-41" value="" style="ellipse;html=1;shape=startState;fillColor=#000000;strokeColor=#ff0000;" vertex="1" parent="PwU85s7J777pROoVStlR-40">
          <mxGeometry x="75.62" y="20" width="30" height="30" as="geometry" />
        </mxCell>
        <mxCell id="PwU85s7J777pROoVStlR-42" value="" style="edgeStyle=orthogonalEdgeStyle;html=1;verticalAlign=bottom;endArrow=open;endSize=8;strokeColor=#ff0000;rounded=0;entryX=0.5;entryY=0;entryDx=0;entryDy=0;" edge="1" parent="PwU85s7J777pROoVStlR-40" source="PwU85s7J777pROoVStlR-41" target="PwU85s7J777pROoVStlR-43">
          <mxGeometry relative="1" as="geometry">
            <mxPoint x="50" y="120" as="targetPoint" />
          </mxGeometry>
        </mxCell>
        <mxCell id="PwU85s7J777pROoVStlR-43" value="&lt;font style=&quot;font-size: 16px;&quot; face=&quot;Lucida Console&quot;&gt;玩家授权打开麦克风&lt;/font&gt;" style="rounded=1;whiteSpace=wrap;html=1;" vertex="1" parent="PwU85s7J777pROoVStlR-40">
          <mxGeometry x="10.620000000000001" y="80" width="160" height="40" as="geometry" />
        </mxCell>
        <mxCell id="PwU85s7J777pROoVStlR-44" value="&lt;font face=&quot;Lucida Console&quot; style=&quot;font-size: 16px;&quot;&gt;朗读对应示范文字&lt;/font&gt;" style="rounded=1;whiteSpace=wrap;html=1;" vertex="1" parent="PwU85s7J777pROoVStlR-40">
          <mxGeometry x="20.619999999999997" y="160" width="140" height="40" as="geometry" />
        </mxCell>
        <mxCell id="PwU85s7J777pROoVStlR-45" style="edgeStyle=orthogonalEdgeStyle;rounded=0;orthogonalLoop=1;jettySize=auto;html=1;" edge="1" parent="PwU85s7J777pROoVStlR-40" source="PwU85s7J777pROoVStlR-43" target="PwU85s7J777pROoVStlR-44">
          <mxGeometry relative="1" as="geometry" />
        </mxCell>
        <mxCell id="PwU85s7J777pROoVStlR-46" value="声纹录入模块" style="swimlane;startSize=20;html=1;" vertex="1" parent="PwU85s7J777pROoVStlR-39">
          <mxGeometry x="180" y="20" width="180" height="590" as="geometry" />
        </mxCell>
        <mxCell id="PwU85s7J777pROoVStlR-47" value="&lt;font face=&quot;Lucida Console&quot; style=&quot;font-size: 16px;&quot;&gt;上传玩家录音音频&lt;/font&gt;" style="rounded=1;whiteSpace=wrap;html=1;" vertex="1" parent="PwU85s7J777pROoVStlR-46">
          <mxGeometry x="22.5" y="160" width="135" height="40" as="geometry" />
        </mxCell>
        <mxCell id="PwU85s7J777pROoVStlR-48" style="edgeStyle=orthogonalEdgeStyle;rounded=0;orthogonalLoop=1;jettySize=auto;html=1;exitX=1;exitY=0.5;exitDx=0;exitDy=0;entryX=0;entryY=0.5;entryDx=0;entryDy=0;" edge="1" parent="PwU85s7J777pROoVStlR-39" source="PwU85s7J777pROoVStlR-44" target="PwU85s7J777pROoVStlR-47">
          <mxGeometry relative="1" as="geometry" />
        </mxCell>
        <mxCell id="PwU85s7J777pROoVStlR-49" style="edgeStyle=orthogonalEdgeStyle;rounded=0;orthogonalLoop=1;jettySize=auto;html=1;exitX=1;exitY=0.5;exitDx=0;exitDy=0;entryX=0;entryY=0.5;entryDx=0;entryDy=0;" edge="1" parent="PwU85s7J777pROoVStlR-39" source="PwU85s7J777pROoVStlR-47" target="PwU85s7J777pROoVStlR-54">
          <mxGeometry relative="1" as="geometry" />
        </mxCell>
        <mxCell id="PwU85s7J777pROoVStlR-50" style="edgeStyle=orthogonalEdgeStyle;rounded=0;orthogonalLoop=1;jettySize=auto;html=1;exitX=0;exitY=0.5;exitDx=0;exitDy=0;entryX=0.5;entryY=1;entryDx=0;entryDy=0;" edge="1" parent="PwU85s7J777pROoVStlR-39" source="PwU85s7J777pROoVStlR-56" target="PwU85s7J777pROoVStlR-44">
          <mxGeometry relative="1" as="geometry" />
        </mxCell>
        <mxCell id="PwU85s7J777pROoVStlR-51" value="是" style="edgeLabel;html=1;align=center;verticalAlign=middle;resizable=0;points=[];" vertex="1" connectable="0" parent="PwU85s7J777pROoVStlR-50">
          <mxGeometry x="-0.0222" y="-1" relative="1" as="geometry">
            <mxPoint x="52" y="1" as="offset" />
          </mxGeometry>
        </mxCell>
        <mxCell id="PwU85s7J777pROoVStlR-52" value="年龄预估模块" style="swimlane;startSize=20;html=1;" vertex="1" parent="PwU85s7J777pROoVStlR-39">
          <mxGeometry x="360" y="20" width="273.75" height="590" as="geometry" />
        </mxCell>
        <mxCell id="PwU85s7J777pROoVStlR-54" value="&lt;font size=&quot;3&quot; face=&quot;Lucida Console&quot;&gt;提取声纹信息&lt;br&gt;&lt;/font&gt;" style="rounded=1;whiteSpace=wrap;html=1;" vertex="1" parent="PwU85s7J777pROoVStlR-52">
          <mxGeometry x="55" y="160" width="130" height="40" as="geometry" />
        </mxCell>
        <mxCell id="PwU85s7J777pROoVStlR-56" value="&lt;span style=&quot;font-size: 14px;&quot;&gt;是否重试&lt;/span&gt;" style="rhombus;whiteSpace=wrap;html=1;" vertex="1" parent="PwU85s7J777pROoVStlR-52">
          <mxGeometry x="10" y="265" width="122.5" height="50" as="geometry" />
        </mxCell>
        <mxCell id="PwU85s7J777pROoVStlR-59" value="&lt;font size=&quot;3&quot; face=&quot;Lucida Console&quot;&gt;验证通过&lt;/font&gt;" style="rounded=1;whiteSpace=wrap;html=1;" vertex="1" parent="PwU85s7J777pROoVStlR-52">
          <mxGeometry x="160" y="390" width="90" height="30" as="geometry" />
        </mxCell>
        <mxCell id="PwU85s7J777pROoVStlR-62" value="&lt;font size=&quot;3&quot; face=&quot;Lucida Console&quot;&gt;验证不通过&lt;/font&gt;" style="rounded=1;whiteSpace=wrap;html=1;" vertex="1" parent="PwU85s7J777pROoVStlR-52">
          <mxGeometry x="18.75" y="390" width="105" height="30" as="geometry" />
        </mxCell>
        <mxCell id="PwU85s7J777pROoVStlR-63" style="rounded=0;orthogonalLoop=1;jettySize=auto;html=1;exitX=0.5;exitY=1;exitDx=0;exitDy=0;entryX=0.5;entryY=0;entryDx=0;entryDy=0;edgeStyle=orthogonalEdgeStyle;" edge="1" parent="PwU85s7J777pROoVStlR-52" source="PwU85s7J777pROoVStlR-56" target="PwU85s7J777pROoVStlR-62">
          <mxGeometry relative="1" as="geometry" />
        </mxCell>
        <mxCell id="PwU85s7J777pROoVStlR-64" value="否" style="edgeLabel;html=1;align=center;verticalAlign=middle;resizable=0;points=[];" vertex="1" connectable="0" parent="PwU85s7J777pROoVStlR-63">
          <mxGeometry x="-0.2222" y="-1" relative="1" as="geometry">
            <mxPoint as="offset" />
          </mxGeometry>
        </mxCell>
        <mxCell id="PwU85s7J777pROoVStlR-65" style="edgeStyle=orthogonalEdgeStyle;rounded=0;orthogonalLoop=1;jettySize=auto;html=1;exitX=0.5;exitY=1;exitDx=0;exitDy=0;entryX=0.5;entryY=0;entryDx=0;entryDy=0;" edge="1" parent="PwU85s7J777pROoVStlR-52" source="PwU85s7J777pROoVStlR-66" target="PwU85s7J777pROoVStlR-69">
          <mxGeometry relative="1" as="geometry" />
        </mxCell>
        <mxCell id="PwU85s7J777pROoVStlR-66" value="&lt;font size=&quot;3&quot; face=&quot;Lucida Console&quot;&gt;向游戏测发送结果回调&lt;/font&gt;" style="rounded=1;whiteSpace=wrap;html=1;" vertex="1" parent="PwU85s7J777pROoVStlR-52">
          <mxGeometry x="45.63" y="480" width="182.5" height="30" as="geometry" />
        </mxCell>
        <mxCell id="PwU85s7J777pROoVStlR-67" style="rounded=0;orthogonalLoop=1;jettySize=auto;html=1;entryX=0.5;entryY=0;entryDx=0;entryDy=0;" edge="1" parent="PwU85s7J777pROoVStlR-52" source="PwU85s7J777pROoVStlR-59" target="PwU85s7J777pROoVStlR-66">
          <mxGeometry relative="1" as="geometry" />
        </mxCell>
        <mxCell id="PwU85s7J777pROoVStlR-68" style="rounded=0;orthogonalLoop=1;jettySize=auto;html=1;exitX=0.5;exitY=1;exitDx=0;exitDy=0;entryX=0.5;entryY=0;entryDx=0;entryDy=0;" edge="1" parent="PwU85s7J777pROoVStlR-52" source="PwU85s7J777pROoVStlR-62" target="PwU85s7J777pROoVStlR-66">
          <mxGeometry relative="1" as="geometry" />
        </mxCell>
        <mxCell id="PwU85s7J777pROoVStlR-69" value="" style="ellipse;html=1;shape=endState;fillColor=#000000;strokeColor=#ff0000;" vertex="1" parent="PwU85s7J777pROoVStlR-52">
          <mxGeometry x="121.88" y="550" width="30" height="30" as="geometry" />
        </mxCell>
        <mxCell id="PwU85s7J777pROoVStlR-72" style="edgeStyle=orthogonalEdgeStyle;rounded=0;orthogonalLoop=1;jettySize=auto;html=1;entryX=0;entryY=0.5;entryDx=0;entryDy=0;" edge="1" parent="PwU85s7J777pROoVStlR-39" source="PwU85s7J777pROoVStlR-54" target="PwU85s7J777pROoVStlR-71">
          <mxGeometry relative="1" as="geometry">
            <mxPoint x="650.62" y="200" as="targetPoint" />
          </mxGeometry>
        </mxCell>
        <mxCell id="PwU85s7J777pROoVStlR-70" value="数据库模块" style="swimlane;startSize=20;html=1;" vertex="1" parent="PwU85s7J777pROoVStlR-39">
          <mxGeometry x="633.75" y="20" width="176.25" height="590" as="geometry" />
        </mxCell>
        <mxCell id="PwU85s7J777pROoVStlR-78" style="edgeStyle=orthogonalEdgeStyle;rounded=0;orthogonalLoop=1;jettySize=auto;html=1;entryX=0.5;entryY=0;entryDx=0;entryDy=0;" edge="1" parent="PwU85s7J777pROoVStlR-70" source="PwU85s7J777pROoVStlR-71" target="PwU85s7J777pROoVStlR-73">
          <mxGeometry relative="1" as="geometry" />
        </mxCell>
        <mxCell id="PwU85s7J777pROoVStlR-71" value="&lt;font style=&quot;font-size: 14px;&quot;&gt;查询该玩家ID&lt;br&gt;对应声纹数据库中&lt;br&gt;声纹特征&lt;/font&gt;" style="rounded=1;whiteSpace=wrap;html=1;" vertex="1" parent="PwU85s7J777pROoVStlR-70">
          <mxGeometry x="26.87" y="140.94" width="133.13" height="78.12" as="geometry" />
        </mxCell>
        <mxCell id="PwU85s7J777pROoVStlR-73" value="&lt;span style=&quot;font-size: 14px;&quot;&gt;对比声纹相似度&lt;/span&gt;" style="rhombus;whiteSpace=wrap;html=1;" vertex="1" parent="PwU85s7J777pROoVStlR-70">
          <mxGeometry x="5.93" y="260" width="175" height="60" as="geometry" />
        </mxCell>
        <mxCell id="PwU85s7J777pROoVStlR-74" style="edgeStyle=orthogonalEdgeStyle;rounded=0;orthogonalLoop=1;jettySize=auto;html=1;entryX=1;entryY=0.5;entryDx=0;entryDy=0;" edge="1" parent="PwU85s7J777pROoVStlR-39" source="PwU85s7J777pROoVStlR-73" target="PwU85s7J777pROoVStlR-56">
          <mxGeometry relative="1" as="geometry" />
        </mxCell>
        <mxCell id="PwU85s7J777pROoVStlR-75" value="相似度低于阈值" style="edgeLabel;html=1;align=center;verticalAlign=middle;resizable=0;points=[];" vertex="1" connectable="0" parent="PwU85s7J777pROoVStlR-74">
          <mxGeometry x="-0.0214" y="-1" relative="1" as="geometry">
            <mxPoint as="offset" />
          </mxGeometry>
        </mxCell>
        <mxCell id="PwU85s7J777pROoVStlR-76" style="edgeStyle=orthogonalEdgeStyle;rounded=0;orthogonalLoop=1;jettySize=auto;html=1;entryX=1;entryY=0.5;entryDx=0;entryDy=0;exitX=0.5;exitY=1;exitDx=0;exitDy=0;" edge="1" parent="PwU85s7J777pROoVStlR-39" source="PwU85s7J777pROoVStlR-73" target="PwU85s7J777pROoVStlR-59">
          <mxGeometry relative="1" as="geometry" />
        </mxCell>
        <mxCell id="PwU85s7J777pROoVStlR-77" value="相似度高于阈值" style="edgeLabel;html=1;align=center;verticalAlign=middle;resizable=0;points=[];" vertex="1" connectable="0" parent="PwU85s7J777pROoVStlR-76">
          <mxGeometry x="-0.2721" relative="1" as="geometry">
            <mxPoint as="offset" />
          </mxGeometry>
        </mxCell>
      </root>
    </mxGraphModel>
  </diagram>
</mxfile>
